<?xml version="1.0" encoding="UTF-8" standalone="no"?>
<!DOCTYPE svg PUBLIC "-//W3C//DTD SVG 1.1//EN" "http://www.w3.org/Graphics/SVG/1.1/DTD/svg11.dtd">
<svg width="100%" height="100%" viewBox="0 0 442 174" version="1.1" xmlns="http://www.w3.org/2000/svg" xmlns:xlink="http://www.w3.org/1999/xlink" xml:space="preserve" xmlns:serif="http://www.serif.com/" style="fill-rule:evenodd;clip-rule:evenodd;stroke-linejoin:round;stroke-miterlimit:2;">
    <g id="Voices-of-the" serif:id="Voices of the" transform="matrix(1,0,0,1,-29.2125,-64.778)">
        <g id="of-the" serif:id="of the" transform="matrix(0.965507,0,0,0.965507,18.5591,25.3562)">
            <g transform="matrix(1.09804,0,0,1,-14.6054,-31)">
                <path d="M330.507,110.083C327.194,110.389 324.579,107.479 324.021,100.51C323.463,93.503 325.59,90.133 328.903,89.827C332.215,89.521 334.831,92.392 335.389,99.4C335.947,106.407 333.82,109.738 330.507,110.083ZM342.398,99.936C342.398,89.329 335.703,85.883 329.705,85.883C323.707,85.883 317.046,89.329 317.046,99.936C317.046,110.542 323.707,113.988 329.705,113.988C335.703,113.988 342.398,110.542 342.398,99.936Z" style="fill:white;fill-rule:nonzero;"/>
            </g>
            <g transform="matrix(1.09804,0,0,1,-14.6054,-31)">
                <path d="M356.765,90.171C359.904,90.171 362.031,92.201 362.031,92.201L362.031,86.266L344.142,86.266C344.142,86.266 345.571,87.338 345.571,90.095L345.571,109.815C345.571,112.572 344.142,113.605 344.142,113.605L353.976,113.605C353.976,113.605 352.546,112.572 352.546,109.815L352.546,101.238L355.161,101.238C358.3,101.238 360.043,102.348 360.043,102.348L360.601,97.37L352.546,97.37L352.546,90.171L356.765,90.171Z" style="fill:white;fill-rule:nonzero;"/>
            </g>
            <g transform="matrix(1.09804,0,0,1,-14.6054,-31)">
                <path d="M372.772,86.266L371.97,91.32C371.97,91.32 373.085,90.171 375.596,90.171L378.142,90.171L378.142,109.815C378.142,112.572 376.712,113.605 376.712,113.605L386.546,113.605C386.546,113.605 385.116,112.572 385.116,109.815L385.116,90.171L387.453,90.171C389.963,90.171 390.765,91.32 390.765,91.32L391.568,86.266L372.772,86.266Z" style="fill:white;fill-rule:nonzero;"/>
            </g>
            <g transform="matrix(1.09804,0,0,1,-14.6054,-31)">
                <path d="M415.559,109.815L415.559,90.095C415.559,87.338 416.989,86.266 416.989,86.266L407.155,86.266C407.155,86.266 408.585,87.338 408.585,90.095L408.585,98.021L401.227,98.021L401.227,90.095C401.227,87.338 402.657,86.266 402.657,86.266L392.788,86.266C392.788,86.266 394.253,87.338 394.253,90.095L394.253,109.815C394.253,112.572 392.788,113.605 392.788,113.605L402.657,113.605C402.657,113.605 401.227,112.572 401.227,109.815L401.227,101.85L408.585,101.85L408.585,109.815C408.585,112.572 407.155,113.605 407.155,113.605L416.989,113.605C416.989,113.605 415.559,112.572 415.559,109.815Z" style="fill:white;fill-rule:nonzero;"/>
            </g>
            <g transform="matrix(1.09804,0,0,1,-14.6054,-31)">
                <path d="M432.089,109.7L427.521,109.7L427.521,101.238L430.136,101.238C433.274,101.238 435.018,102.348 435.018,102.348L435.576,97.37L427.521,97.37L427.521,90.171L431.74,90.171C434.879,90.171 437.006,92.201 437.006,92.201L437.006,86.266L419.082,86.266C419.082,86.266 420.546,87.338 420.546,90.095L420.546,109.815C420.546,112.572 419.082,113.605 419.082,113.605L437.354,113.605L438.296,107.709C438.296,107.709 436.204,109.7 432.089,109.7Z" style="fill:white;fill-rule:nonzero;"/>
            </g>
        </g>
        <g id="Voices" transform="matrix(0.985867,0,0,0.985867,6.107,9.56949)">
            <g transform="matrix(1.37452,0,0,0.873153,-60.4704,16.8312)">
                <path d="M90.319,45.718C90.319,45.718 92.065,48.123 90.81,54.307L83.989,87.205L77.223,54.307C75.968,48.123 77.715,45.718 77.715,45.718L62.273,45.718C62.273,45.718 65.056,48.123 66.311,54.307L74.277,92.789C76.132,101.808 81.425,107.906 87.482,107.906L90.537,107.906C90.537,107.906 88.573,104.728 89.882,98.544L98.995,54.307C100.25,48.123 102.978,45.718 102.978,45.718L90.319,45.718Z" style="fill:white;fill-rule:nonzero;"/>
            </g>
            <g transform="matrix(1.37452,0,0,0.873153,-60.4704,16.8312)">
                <path d="M126.495,99.145C121.311,99.832 117.219,93.304 116.346,77.671C115.473,61.952 118.802,54.393 123.985,53.706C129.169,53.019 133.261,59.461 134.134,75.18C135.007,90.899 131.679,98.372 126.495,99.145ZM145.102,76.383C145.102,52.59 134.625,44.859 125.24,44.859C115.855,44.859 105.433,52.59 105.433,76.383C105.433,100.176 115.855,107.906 125.24,107.906C134.625,107.906 145.102,100.176 145.102,76.383Z" style="fill:white;fill-rule:nonzero;"/>
            </g>
            <g transform="matrix(1.37452,0,0,0.873153,-60.4704,16.8312)">
                <path d="M163.708,98.544L163.708,54.307C163.708,48.123 165.945,45.718 165.945,45.718L150.558,45.718C150.558,45.718 152.795,48.123 152.795,54.307L152.795,98.544C152.795,104.728 150.558,107.047 150.558,107.047L165.945,107.047C165.945,107.047 163.708,104.728 163.708,98.544Z" style="fill:white;fill-rule:nonzero;"/>
            </g>
            <g transform="matrix(1.37452,0,0,0.873153,-60.4704,16.8312)">
                <path d="M193.064,99.145C189.844,99.145 182.86,95.967 182.86,76.383C182.86,56.798 188.862,53.62 192.736,53.62C199.011,53.62 203.649,63.241 203.649,63.241L203.649,47.694C203.649,47.694 198.684,44.859 191.754,44.859C184.279,44.859 171.947,52.59 171.947,76.383C171.947,100.176 183.733,107.906 192.845,107.906C199.775,107.906 206.214,105.158 206.214,105.158L206.759,89.525C206.759,89.525 201.739,99.145 193.064,99.145Z" style="fill:white;fill-rule:nonzero;"/>
            </g>
            <g transform="matrix(1.37452,0,0,0.873153,-60.4704,16.8312)">
                <path d="M233.114,98.286L225.966,98.286L225.966,79.303L230.058,79.303C234.969,79.303 237.697,81.794 237.697,81.794L238.57,70.628L225.966,70.628L225.966,54.479L232.568,54.479C237.479,54.479 240.807,59.032 240.807,59.032L240.807,45.718L212.761,45.718C212.761,45.718 215.053,48.123 215.053,54.307L215.053,98.544C215.053,104.728 212.761,107.047 212.761,107.047L241.353,107.047L242.826,93.819C242.826,93.819 239.552,98.286 233.114,98.286Z" style="fill:white;fill-rule:nonzero;"/>
            </g>
            <g transform="matrix(1.37452,0,0,0.873153,-60.4704,16.8312)">
                <path d="M259.741,59.805C259.741,56.455 262.197,53.706 265.034,53.706C271.909,53.706 275.892,63.241 275.892,63.241L275.892,47.694C275.892,47.694 270.436,44.859 263.834,44.859C255.376,44.859 248.828,50.872 248.828,61.093C248.828,81.88 267.489,80.248 267.489,92.789C267.489,96.224 264.925,99.145 261.869,99.145C254.394,99.145 248.828,89.525 248.828,89.525L249.374,105.158C249.374,105.158 253.739,107.82 260.56,107.906C272.237,107.906 278.402,101.206 278.402,90.384C278.402,67.02 259.741,69.339 259.741,59.805Z" style="fill:white;fill-rule:nonzero;"/>
            </g>
        </g>
    </g>
    <g id="Oldman" transform="matrix(1,0,0,1,-24.75,-71.778)">
        <g transform="matrix(1.11648,0,0,2.10839,-19.9092,-187.843)">
            <path d="M100.903,186.193C100.945,186.127 100.989,186.061 101.033,185.995C101.667,185.055 102.428,184.047 102.936,183.106C103.19,182.636 103.317,182.233 103.317,181.897C103.317,181.359 103.063,180.889 102.428,180.284C100.652,178.604 100.017,176.723 99.129,174.909C98.114,172.96 96.845,171.012 95.323,169.197C93.039,166.577 89.993,163.956 85.045,162.277C76.67,159.455 63.474,159.925 56.622,163.62C53.958,165.031 51.927,166.846 50.151,168.458C48.248,170.272 46.852,172.154 46.091,174.102C45.456,175.312 45.202,176.656 44.568,177.865C43.807,179.142 42.792,180.418 41.015,181.359C40.508,181.628 40,181.829 40,182.165C40,182.367 40.127,182.569 40.381,182.77C42.03,184.383 43.299,186.063 44.314,187.809C45.202,189.489 45.456,191.303 46.725,192.983C47.877,194.542 49.383,196.066 51.229,197.505C51.252,197.496 51.276,197.487 51.3,197.479C52.256,196.97 54.918,195.552 55.451,195.28C56.286,194.853 57.123,194.392 58.175,194.132C59.371,193.837 61.604,193.639 62.969,193.379C63.757,193.229 64.536,193.012 65.287,192.819C61.172,189.959 60.883,186.246 63.601,183.106C63.855,182.904 64.108,182.636 63.982,182.434C63.982,182.165 63.601,181.897 63.347,181.695C60.429,179.276 62.713,176.051 64.997,173.834C65.885,173.094 66.773,172.355 68.042,171.751C69.311,171.213 71.087,170.81 72.737,170.877C75.909,170.944 78.193,172.221 79.589,173.565C81.111,174.774 82.126,176.051 82.634,177.462C83.142,178.94 83.903,180.284 82.126,181.695C81.873,181.897 81.492,182.165 81.492,182.434C81.492,182.636 81.619,182.904 81.873,183.106C83.43,184.95 83.797,187.074 82.877,189.048C84.073,188.736 85.298,188.415 86.139,188.226C87.085,188.014 88.214,187.881 89.074,187.728C89.8,187.599 90.507,187.439 91.238,187.316C92.356,187.127 94.397,186.789 95.77,186.601C97.087,186.42 98.408,186.177 99.769,186.167C100.102,186.165 100.488,186.175 100.903,186.193Z" style="fill:white;"/>
        </g>
        <g transform="matrix(1.11648,0,0,2.10839,-19.9092,-187.843)">
            <path d="M53.052,198.823C54.432,199.75 55.962,200.63 57.637,201.449C59.667,202.457 62.078,203.465 65.124,203.801C66.392,203.936 67.534,204.003 68.803,204.003C70.326,204.003 71.722,204.07 73.244,204.07C74.386,204.137 75.655,204.137 76.797,204.003C78.066,203.868 79.208,203.532 80.35,203.264C84.537,202.121 87.709,200.845 90.628,198.963C93.546,197.149 95.703,195.066 97.226,192.849C98.356,191.203 99.067,189.484 99.98,187.773C99.922,187.773 99.866,187.773 99.811,187.773C98.691,187.781 97.615,188.007 96.531,188.155C95.206,188.337 93.237,188.664 92.157,188.846C91.443,188.967 90.751,189.124 90.04,189.25C89.245,189.392 88.198,189.508 87.323,189.705C85.973,190.008 83.612,190.66 82.021,191.053C81.756,191.119 81.491,191.184 81.226,191.248C80.34,192.117 79.201,192.919 77.685,193.655C76.036,194.394 74.006,194.999 71.849,194.932C70.223,194.932 68.754,194.573 67.507,194.051C67.457,194.062 67.406,194.073 67.356,194.084C66.295,194.315 65.153,194.669 63.997,194.89C62.706,195.136 60.587,195.309 59.457,195.588C58.706,195.773 58.153,196.131 57.557,196.435C56.907,196.767 53.712,198.493 53.052,198.823Z" style="fill:white;"/>
        </g>
        <g transform="matrix(1.11648,0,0,2.10839,-19.9092,-187.843)">
            <path d="M112,188.701C112.027,188.919 112.051,189.137 112.072,189.355C112.325,192.11 112.325,194.797 111.945,197.552C111.818,198.963 111.437,200.374 111.057,201.718C110.803,202.928 110.549,203.936 113.214,204.07C116.513,204.271 119.685,204.339 122.984,204.204C126.41,204.003 129.709,203.667 133.135,203.532C136.561,203.331 140.114,203.465 143.667,203.734C144.555,203.801 145.443,203.868 146.331,203.801C146.839,203.801 147.981,203.801 148.361,203.667C148.615,203.6 148.742,203.398 148.869,203.196C149.123,202.928 149.25,202.525 149.376,202.256C149.63,201.785 149.757,201.248 149.884,200.71C150.392,198.627 149.757,196.477 148.996,194.394C148.996,194.058 148.869,193.722 148.361,193.454C147.346,192.849 144.555,193.319 143.286,193.454C141.383,193.655 139.606,193.857 137.703,193.991L134.658,193.991C134.023,193.991 133.389,193.991 132.754,193.924C131.105,193.857 128.821,193.588 128.567,192.58C128.423,192.107 128.311,191.629 128.233,191.151C127.355,191.016 126.394,190.854 125.516,190.744C123.952,190.549 121.978,190.431 120.26,190.167C118.369,189.876 116.192,189.312 114.094,188.988C113.446,188.888 112.728,188.791 112,188.701Z" style="fill:white;"/>
        </g>
        <g transform="matrix(1.11648,0,0,2.10839,-19.9092,-187.843)">
            <path d="M128.091,189.459C128.088,188.388 128.246,187.318 128.567,186.264C129.201,184.45 130.851,182.703 130.09,180.822L129.328,178.739C128.186,175.648 127.552,172.557 127.679,169.466C127.679,167.921 127.933,166.442 128.567,164.897C128.948,163.688 130.47,162.142 128.694,161.067C127.806,160.53 126.283,160.395 124.887,160.261C120.7,159.992 116.767,159.791 112.706,160.395C109.915,160.866 109.534,162.142 109.661,163.553C109.915,166.442 110.803,169.332 111.31,172.221C111.945,175.11 112.072,178.067 110.549,180.889C110.295,181.225 110.168,181.561 110.042,181.897C109.915,183.039 110.93,184.248 111.31,185.323C111.471,185.889 111.608,186.455 111.724,187.021C112.82,187.149 113.96,187.295 114.942,187.446C117.04,187.77 119.216,188.334 121.107,188.625C122.775,188.882 124.694,188.991 126.212,189.181C126.818,189.257 127.463,189.359 128.091,189.459Z" style="fill:white;"/>
        </g>
        <g transform="matrix(1.11648,0,0,2.10839,-19.9092,-187.843)">
            <path d="M158.911,188.012C159.223,189.261 159.431,190.517 159.527,191.774C159.654,193.386 159.654,194.932 159.274,196.477C158.766,198.224 158.132,199.971 157.497,201.718C157.37,202.189 157.243,202.726 157.878,203.129C158.132,203.398 158.766,203.465 159.274,203.6C162.319,204.07 165.491,203.868 168.79,204.003C171.835,204.07 174.881,204.07 178.053,203.801C184.27,203.264 190.234,201.987 195.183,199.971C204.826,196.141 211.17,189.624 211.424,183.24C211.424,181.774 211.214,180.308 210.89,178.841C209.889,179.074 208.815,179.319 207.846,179.466C206.974,179.599 206.034,179.575 205.164,179.713C204.305,179.85 203.365,180.087 202.506,180.304C202.086,180.41 201.745,180.593 201.413,180.752C201.044,180.928 200.686,181.09 200.329,181.204C199.996,181.311 199.282,181.707 199.153,181.779C199.026,181.908 198.83,182.117 198.861,182.277C198.902,182.487 199.144,182.649 199.272,182.771C199.381,182.874 199.464,182.967 199.517,183.046L199.617,183.258C199.813,183.993 199.32,184.732 198.67,185.302C198.031,185.862 197.258,186.249 197.04,186.332C196.104,186.685 193.787,187.129 192.771,187.373C192.731,187.451 192.689,187.53 192.645,187.608C191.63,189.556 189.346,191.303 185.92,192.177C183.89,192.714 181.733,193.05 179.575,193.252C179.068,193.319 178.56,193.386 178.053,193.319C177.799,193.252 177.545,193.185 177.165,192.983C176.784,192.647 176.657,192.11 176.53,191.707C176.374,190.438 176.474,189.146 176.805,187.865C176.783,187.864 176.76,187.863 176.738,187.863C174.615,187.806 170.659,187.663 168.558,187.637C167.128,187.619 165.694,187.638 164.269,187.702C162.831,187.767 160.739,187.877 158.911,188.012Z" style="fill:white;"/>
        </g>
        <g transform="matrix(1.11648,0,0,2.10839,-19.9092,-187.843)">
            <path d="M210.54,177.165C210.017,174.828 209.16,172.52 207.11,170.407C201.4,164.763 189.726,161.336 178.053,160.664C172.977,160.328 167.775,160.462 162.826,160.933C161.558,161.067 160.289,161.202 159.4,161.739C157.751,162.814 158.766,164.897 159.02,166.174C159.781,169.332 160.416,172.49 159.908,175.648C159.527,177.596 158.639,179.545 156.736,181.225C156.609,181.359 156.482,181.493 156.482,181.628C156.482,181.762 156.482,181.897 156.609,182.031C157.361,183.472 157.982,184.94 158.458,186.424C160.354,186.284 162.521,186.169 164.012,186.102C165.546,186.033 167.09,186.012 168.629,186.031C170.752,186.058 174.746,186.202 176.89,186.259C177.037,186.263 177.186,186.266 177.336,186.27C177.864,184.978 178.62,183.71 179.575,182.501C179.829,182.233 179.956,181.964 179.956,181.695C180.083,181.225 179.575,180.956 179.195,180.62C178.687,180.15 178.307,179.746 178.053,179.276C177.418,178.268 176.911,177.193 176.657,176.185C176.403,174.573 176.53,173.027 177.038,171.482C177.672,170.071 178.56,169.533 181.479,169.936C186.047,170.608 189.219,172.893 190.995,175.043C192.772,177.26 193.406,179.612 193.66,182.031C193.739,183.156 193.72,184.333 193.452,185.498C194.147,185.348 194.83,185.187 195.24,185.038C195.31,184.999 195.775,184.733 196.074,184.472C196.369,184.213 196.664,183.892 196.629,183.561C196.472,183.411 195.928,182.869 195.844,182.441C195.751,181.959 196.244,181.264 196.52,180.98C196.539,180.961 196.558,180.943 196.579,180.925C196.81,180.728 198.048,180.059 198.757,179.831C199.039,179.74 199.308,179.594 199.606,179.452C200.086,179.225 200.61,179.003 201.202,178.854C202.2,178.602 203.296,178.333 204.294,178.175C205.174,178.035 206.125,178.058 207.007,177.923C207.889,177.789 208.864,177.558 209.77,177.347C210.022,177.289 210.28,177.228 210.54,177.165Z" style="fill:white;"/>
        </g>
        <g transform="matrix(1.11648,0,0,2.10839,-19.9092,-187.843)">
            <path d="M222.253,177.391C221.579,178.523 220.703,179.625 219.672,180.687L219.037,181.359C218.91,181.695 219.037,181.964 219.164,182.3C219.925,184.987 221.067,187.608 221.067,190.363C221.194,194.529 219.925,198.627 217.895,202.592C216.373,205.414 232.233,204.406 235.025,204.204C236.294,204.137 237.817,204.003 238.324,203.331C239.339,202.39 238.451,200.912 238.197,199.904C237.943,198.56 237.69,192.379 237.563,191.035C237.309,188.347 237.309,185.592 238.197,182.972C238.324,182.636 238.578,182.233 239.339,182.165C240.1,182.098 240.735,182.569 241.116,182.837C242.384,183.576 243.4,184.45 244.161,185.323C245.176,186.533 246.064,187.809 246.825,189.086L247.587,189.825C248.348,190.296 249.617,190.43 250.632,190.564C252.282,190.766 254.185,190.9 255.581,190.43C256.469,190.161 256.976,189.422 257.484,189.019L259.387,187.339L260.499,186.309C260.059,186.161 259.648,185.989 259.333,185.798C258.836,185.498 258.487,185.121 258.285,184.736C258.081,184.346 257.966,183.881 258.136,183.466C258.337,182.979 259.077,182.075 259.463,181.458C259.811,180.902 260.122,180.194 260.437,179.778C261.224,178.742 261.056,177.793 260.799,177.228C260.409,176.373 260.058,175.915 259.14,175.552C258.768,175.406 258.217,175.162 257.723,174.993C256.873,174.701 255.163,174.074 254.054,173.8C253.168,173.581 251.965,173.467 251.232,173.379C250.773,173.323 250.302,173.282 249.831,173.285C249.378,173.288 248.78,173.373 248.423,173.417C248.246,173.458 247.28,173.687 246.729,173.984C246.149,174.296 245.906,174.736 245.777,174.95C245.398,175.576 245.244,176.584 245.25,177.217C245.253,177.529 245.424,178.141 245.262,178.761C245.048,179.583 244.331,180.399 242.488,180.852C241.614,181.066 240.754,181.323 239.813,181.43C238.759,181.549 237.296,181.606 236.251,181.531C235.29,181.462 234.411,181.202 233.525,180.992C232.597,180.773 231.405,180.515 230.446,180.183C229.084,179.713 226.41,178.563 225.156,178.112C224.547,177.893 223.872,177.699 223.212,177.557C222.9,177.49 222.579,177.437 222.253,177.391Z" style="fill:white;"/>
        </g>
        <g transform="matrix(1.11648,0,0,2.10839,-19.9092,-187.843)">
            <path d="M268.793,187.847C268.81,188.912 268.75,189.978 268.65,191.035C268.523,192.379 268.269,198.56 268.016,199.904C267.889,200.912 266.874,202.39 267.889,203.331C268.523,204.003 269.919,204.137 271.315,204.204C273.979,204.406 289.84,205.414 288.317,202.592C286.287,198.627 285.018,194.529 285.145,190.363C285.145,188.958 285.409,187.624 285.746,186.284C285.096,186.443 284.411,186.605 283.84,186.722C283.037,186.886 281.899,187.044 281.376,187.127C281.105,187.17 280.833,187.215 280.554,187.24C279.792,187.309 277.947,187.474 276.636,187.563C275.087,187.667 272.792,187.828 271.287,187.863C270.484,187.882 269.607,187.876 268.793,187.847Z" style="fill:white;"/>
        </g>
        <g transform="matrix(1.11648,0,0,2.10839,-19.9092,-187.843)">
            <path d="M286.232,184.371C286.327,183.884 286.39,183.406 286.287,182.972C286.16,182.031 285.526,181.225 284.892,180.418C281.466,175.11 282.988,169.332 285.526,163.956C285.78,163.419 286.033,162.949 285.78,162.411C285.526,161.806 284.511,161.269 283.369,161C282.227,160.731 280.958,160.664 279.689,160.664C275.629,160.462 271.442,160.462 267.381,160.664C263.828,160.866 261.798,161.403 260.275,163.15C258.499,165.367 256.723,167.518 254.819,169.668C254.439,170.071 253.677,170.541 252.916,170.34C252.662,170.272 252.535,170.071 252.282,169.936L246.445,163.956C245.557,163.083 244.668,162.209 243.4,161.47C242.004,160.664 240.608,160.597 238.578,160.53C235.406,160.53 232.233,160.53 229.061,160.731C227.412,160.866 225.762,160.933 224.24,161.336C221.702,161.941 222.209,163.15 222.463,164.427C222.971,166.174 223.351,167.921 223.605,169.668C223.732,170.81 223.859,171.952 223.732,173.162C223.645,174.065 223.407,174.96 223.039,175.841C223.485,175.904 223.925,175.977 224.352,176.069C225.204,176.252 226.076,176.501 226.861,176.784C228.104,177.231 230.753,178.372 232.103,178.838C232.929,179.124 233.962,179.337 234.761,179.526C235.386,179.674 235.981,179.891 236.659,179.94C237.398,179.993 238.432,179.944 239.177,179.859C239.9,179.777 240.542,179.559 241.212,179.395C241.946,179.214 242.173,178.869 242.258,178.542C242.396,178.013 242.22,177.491 242.217,177.225C242.21,176.453 242.426,175.224 242.889,174.459C243.107,174.1 243.593,173.382 244.568,172.857C245.748,172.223 247.542,171.876 247.683,171.86C248.148,171.807 249.098,171.684 249.795,171.68C250.504,171.675 251.215,171.73 251.906,171.813C252.8,171.921 254.256,172.078 255.335,172.344C256.552,172.645 258.439,173.325 259.372,173.645C259.922,173.834 260.539,174.101 260.952,174.265C262.398,174.835 263.132,175.505 263.747,176.851C264.103,177.632 264.339,178.944 263.251,180.377C262.954,180.77 262.67,181.438 262.342,181.963C261.986,182.531 261.284,183.359 261.1,183.808C261.033,183.972 261.127,184.153 261.208,184.307C261.289,184.462 261.414,184.619 261.616,184.741C261.723,184.806 261.857,184.863 262.003,184.915L262.433,184.517C263.194,183.778 264.082,182.972 265.605,182.501C266.874,182.098 267.762,182.165 268.016,182.972C268.378,184.041 268.593,185.133 268.702,186.233C269.481,186.27 270.361,186.277 271.155,186.259C272.589,186.225 274.776,186.069 276.253,185.97C277.521,185.884 279.305,185.724 280.041,185.657C280.199,185.643 280.351,185.613 280.504,185.589C280.98,185.513 282.019,185.372 282.75,185.223C283.588,185.052 284.688,184.775 285.513,184.567C285.751,184.507 285.992,184.44 286.232,184.371Z" style="fill:white;"/>
        </g>
        <g transform="matrix(1.11648,0,0,2.10839,-19.9092,-187.843)">
            <path d="M346.812,200.729C346.807,201.595 346.425,202.395 345.543,203.062C345.163,203.465 344.655,203.936 345.036,204.339C345.417,204.54 346.051,204.607 346.558,204.675L348.842,204.876C354.806,205.279 360.897,205.414 366.733,204.675C369.622,204.322 368.717,203.299 367.765,202.283C367.634,202.283 367.508,202.283 367.389,202.283C366.046,202.286 364.702,202.248 363.363,202.19C361.419,202.105 358.206,201.998 355.66,201.774C352.974,201.537 349.268,200.927 346.812,200.729Z" style="fill:white;"/>
        </g>
        <g transform="matrix(1.11648,0,0,2.10839,-19.9092,-187.843)">
            <path d="M306.266,184.621C306.929,186.336 306.794,188.134 306.208,189.892C305.32,192.714 303.544,195.671 301.387,198.224C299.737,200.173 297.707,201.987 295.296,203.734C294.916,204.003 294.535,204.406 295.042,204.607C295.169,204.675 295.423,204.675 295.677,204.675C296.311,204.742 296.946,204.742 297.58,204.742C303.417,204.742 309.127,204.742 314.964,204.675C315.979,204.675 317.121,204.607 318.136,204.339C319.024,204.003 319.532,203.465 319.278,202.928C319.024,202.189 318.897,201.517 319.024,200.778C319.047,200.705 319.073,200.632 319.101,200.558C318.757,200.466 318.423,200.371 318.102,200.274C316.907,199.916 315.892,199.408 314.803,198.967C313.649,198.499 312.232,198.143 311.404,197.523C310.571,196.9 310.142,195.824 309.814,195.217C309.592,194.807 309.532,194.377 309.393,193.956C309.226,193.453 308.915,192.642 308.784,192.135C308.651,191.616 308.362,191.062 308.68,190.566C308.983,190.093 310.05,189.52 310.64,189.086C311.079,188.763 311.521,188.442 311.937,188.112C312.424,187.725 312.593,187.172 312.502,186.648C312.418,186.165 312.125,185.69 311.489,185.424C310.691,185.091 309.505,184.974 308.649,184.837C307.878,184.713 307.07,184.653 306.266,184.621Z" style="fill:white;"/>
        </g>
        <g transform="matrix(1.11648,0,0,2.10839,-19.9092,-187.843)">
            <path d="M366.347,200.671L363.942,197.888C361.912,195.201 360.135,192.446 358.74,189.624C357.725,187.541 358.105,185.727 358.613,183.576C358.613,183.106 358.867,182.703 358.486,182.3C358.232,181.897 357.725,181.762 357.217,181.426C355.948,180.687 355.187,179.679 354.172,178.806C352.903,177.664 351.634,176.454 350.619,175.177C350.111,174.573 349.731,173.901 349.35,173.229C347.447,169.601 346.051,165.166 349.604,161.739C349.731,161.605 349.984,161.403 349.858,161.269C349.858,161 349.223,160.933 348.716,160.866C341.356,160.059 333.616,160.059 326.003,160.328C323.338,160.395 320.547,160.53 318.009,161C317.501,161.134 316.867,161.269 316.74,161.537C316.613,161.739 316.74,161.941 316.867,162.142C320.293,167.249 315.471,173.699 311.411,178.335C310.523,179.343 309.634,180.418 308.239,181.225C307.399,181.669 305.313,182.354 305.408,182.995C305.778,182.998 306.132,183.005 306.46,183.018C307.495,183.058 308.534,183.14 309.528,183.3C310.698,183.487 312.275,183.707 313.366,184.163C314.604,184.68 315.358,185.56 315.522,186.501C315.678,187.4 315.296,188.338 314.46,189.003C314.024,189.349 313.561,189.686 313.102,190.024C312.828,190.225 312.432,190.455 312.068,190.689C311.855,190.825 311.634,190.954 311.552,191.082C311.489,191.181 311.563,191.284 311.601,191.389C311.666,191.566 311.745,191.744 311.789,191.918C311.916,192.408 312.218,193.192 312.38,193.678C312.501,194.043 312.536,194.418 312.729,194.775C312.986,195.249 313.228,196.108 313.88,196.596C314.146,196.795 314.527,196.939 314.921,197.079C315.495,197.284 316.105,197.472 316.646,197.691C317.626,198.088 318.523,198.555 319.598,198.877C319.785,198.933 319.976,198.989 320.172,199.045C320.777,198.505 321.61,198.06 322.704,197.821C324.988,197.284 327.399,196.948 329.936,196.813C333.235,196.679 336.788,196.813 340.087,197.351C341.993,197.658 344.278,198.194 345.634,199.054C346.089,199.067 346.543,199.088 346.994,199.12C349.468,199.299 353.362,199.943 356.158,200.19C358.621,200.407 361.731,200.508 363.611,200.589C364.521,200.629 365.434,200.659 366.347,200.671ZM327.272,188.145C327.018,187.877 327.018,187.541 327.018,187.205C327.145,185.794 327.906,184.383 328.414,182.972C329.683,180.15 331.205,177.395 333.235,174.774C335.519,177.865 337.423,181.09 338.692,184.383C339.199,185.659 341.102,187.944 338.057,188.549C335.266,189.086 332.093,188.952 329.175,188.683C328.667,188.683 328.16,188.616 327.779,188.414C327.525,188.347 327.399,188.28 327.272,188.145Z" style="fill:white;"/>
        </g>
        <g transform="matrix(1.11648,0,0,2.10839,-19.9092,-187.843)">
            <path d="M376.619,202.084C376.607,202.654 376.631,203.382 377.011,203.734C377.265,204.003 378.026,204.07 378.661,204.137C381.579,204.271 384.498,204.339 387.416,204.339C390.208,204.271 395.664,204.675 397.821,203.398C399.011,202.71 398.817,201.632 398.341,200.663C397.543,200.561 396.727,200.445 395.964,200.32C394.412,200.066 392.321,199.499 390.916,199.341C389.987,199.236 388.982,199.266 388.068,199.365C387.082,199.472 386.15,199.755 385.233,199.999C383.978,200.333 382.465,200.938 380.965,201.286C379.598,201.603 378.126,201.916 376.619,202.084Z" style="fill:white;"/>
        </g>
        <g transform="matrix(1.11648,0,0,2.10839,-19.9092,-187.843)">
            <path d="M410.95,200.823L410.763,201.517C410.636,201.987 410.636,202.592 411.271,202.928C411.778,203.264 412.54,203.465 413.301,203.6C415.585,204.003 418.123,203.868 420.66,203.936C424.467,204.07 428.274,204.07 431.953,203.6C432.715,203.532 433.603,203.398 433.983,203.062C434.364,202.793 434.364,202.457 434.237,202.121C434.164,201.502 433.965,200.883 433.736,200.263C433.497,200.273 433.251,200.253 433.016,200.199C433.016,200.199 429.13,199.309 427.675,199.009C426.624,198.793 425.575,198.561 424.475,198.433C423.284,198.296 421.904,198.269 420.616,198.198C419.347,198.128 418.164,198.005 417.347,198.029C417.23,198.033 417.064,198.055 416.939,198.138C416.919,198.151 416.899,198.164 416.878,198.176C416.556,198.363 416.019,198.652 415.704,198.906C415.298,199.233 414.949,199.591 414.414,199.862C413.778,200.184 412.904,200.552 411.978,200.705C411.684,200.754 411.333,200.792 410.95,200.823Z" style="fill:white;"/>
        </g>
        <g transform="matrix(1.11648,0,0,2.10839,-19.9092,-187.843)">
            <path d="M433.079,198.466C432.308,196.042 432.102,193.508 432.461,191.035C432.842,188.481 434.11,186.197 435.125,183.711C435.379,183.442 435.506,183.106 435.506,182.77C435.506,182.031 434.872,181.359 434.364,180.62C432.207,177.798 431.573,174.707 431.826,171.616C431.953,170.071 432.207,168.525 432.461,166.98C432.842,165.569 434.11,164.158 433.857,162.68C433.603,161.269 431.065,161.336 429.035,161.202C426.243,161 423.452,160.933 420.66,161.067C418.884,161.067 417.234,161.134 415.585,161.202C414.57,161.269 413.555,161.403 412.54,161.537C411.525,161.672 410.509,161.941 409.875,162.344C408.86,163.15 409.494,164.225 410.002,165.166C411.144,167.182 411.525,169.265 411.017,171.347C410.89,171.952 410.383,172.624 409.367,172.691C408.352,172.826 407.591,172.355 407.083,171.952C404.673,170.34 403.023,168.391 402.008,166.442C401.374,165.031 401.881,162.747 399.47,161.806C398.455,161.403 397.186,161.202 395.917,161.067C390.461,160.462 384.625,160.597 379.168,161.403C377.9,161.605 376.504,161.941 375.742,162.545C374.474,163.62 375.362,165.435 375.742,166.577C376.504,169.13 377.265,171.683 377.646,174.304C377.773,175.648 377.9,176.992 377.646,178.268C377.519,179.411 377.392,180.822 376.377,181.897C376.123,182.165 375.616,182.434 375.489,182.837C375.362,183.375 376.123,184.316 376.377,184.92C376.758,185.727 377.011,186.533 377.265,187.339C377.773,188.952 378.026,190.564 378.153,192.244C378.28,194.327 378.026,196.41 377.646,198.493C377.491,199.108 377.194,199.749 376.957,200.384C377.922,200.231 378.859,200.021 379.748,199.815C381.199,199.479 382.657,198.887 383.871,198.564C385.024,198.257 386.218,197.926 387.459,197.792C388.771,197.649 390.214,197.62 391.547,197.77C393.024,197.937 395.229,198.519 396.86,198.786C397.07,198.82 397.283,198.854 397.499,198.887C395.737,194.58 395.548,190.131 396.933,185.794C397.567,183.912 399.343,182.367 402.389,184.383C406.83,187.339 409.494,191.035 410.89,194.73C411.342,196.167 411.593,197.656 411.373,199.104C411.736,199 412.055,198.834 412.319,198.701C412.689,198.513 412.889,198.25 413.17,198.024C413.56,197.71 414.201,197.347 414.603,197.114C415.4,196.601 416.432,196.448 417.175,196.426C418.113,196.398 419.474,196.52 420.932,196.601C422.33,196.678 423.829,196.715 425.122,196.864C426.376,197.009 427.576,197.266 428.772,197.512C429.747,197.713 431.79,198.173 433.079,198.466Z" style="fill:white;"/>
        </g>
    </g>
</svg>
