<?xml version="1.0" encoding="UTF-8" standalone="no"?><!DOCTYPE svg PUBLIC "-//W3C//DTD SVG 1.1//EN" "http://www.w3.org/Graphics/SVG/1.1/DTD/svg11.dtd"><svg width="100%" height="100%" viewBox="0 0 36 85" version="1.1" xmlns="http://www.w3.org/2000/svg" xmlns:xlink="http://www.w3.org/1999/xlink" xml:space="preserve" xmlns:serif="http://www.serif.com/" style="fill-rule:evenodd;clip-rule:evenodd;stroke-linecap:round;stroke-linejoin:round;"><path d="M0.85,83.89c0.264,-0.112 0.676,-0.176 0.792,-0.336c0.116,-0.16 -0.036,-0.422 -0.096,-0.624c-0.088,-0.296 -0.38,-0.82 -0.432,-1.152c-0.044,-0.279 0.016,-0.588 0.12,-0.84c0.104,-0.252 0.287,-0.495 0.504,-0.672c0.3,-0.244 0.94,-0.628 1.296,-0.792c0.261,-0.12 0.553,-0.189 0.84,-0.192c0.348,-0.004 0.834,0.096 1.248,0.168c0.688,0.12 2.04,0.424 2.88,0.552c0.715,0.109 1.644,0.148 2.16,0.216c0.316,0.042 0.628,0.152 0.936,0.192c0.302,0.039 0.608,0.052 0.912,0.048c0.32,-0.004 0.688,0.008 1.008,-0.072c0.32,-0.08 0.651,-0.201 0.912,-0.408c0.404,-0.32 1.144,-1.088 1.512,-1.512c0.272,-0.313 0.548,-0.8 0.696,-1.032c0.073,-0.115 0.137,-0.236 0.192,-0.36c0.084,-0.188 0.191,-0.52 0.312,-0.768c0.184,-0.376 0.588,-1.028 0.792,-1.488c0.182,-0.409 0.208,-0.928 0.432,-1.272c0.22,-0.337 0.556,-0.604 0.912,-0.792c0.38,-0.2 0.924,-0.328 1.368,-0.408c0.426,-0.077 0.912,-0.096 1.296,-0.072c0.343,0.021 0.678,0.122 1.008,0.216c0.392,0.112 0.976,0.32 1.344,0.456c0.293,0.108 0.581,0.228 0.864,0.36c0.3,0.14 0.626,0.317 0.936,0.48c0.372,0.196 0.888,0.472 1.296,0.696c0.386,0.212 0.844,0.504 1.152,0.648c0.22,0.103 0.476,0.16 0.696,0.216c0.205,0.052 0.412,0.112 0.624,0.12c0.22,0.008 0.466,-0.033 0.696,-0.072c0.304,-0.052 0.784,-0.144 1.128,-0.24c0.319,-0.089 0.672,-0.204 0.936,-0.336c0.236,-0.118 0.463,-0.268 0.648,-0.456c0.244,-0.248 0.564,-0.68 0.816,-1.032c0.249,-0.348 0.504,-0.8 0.696,-1.08c0.142,-0.207 0.392,-0.357 0.456,-0.6c0.076,-0.288 -0.02,-0.832 0,-1.128c0.015,-0.219 0.084,-0.456 0.12,-0.648c0.032,-0.168 0.086,-0.333 0.096,-0.504c0.016,-0.264 0.06,-0.84 0,-1.08c-0.041,-0.165 -0.23,-0.251 -0.36,-0.36c-0.252,-0.212 -0.789,-0.584 -1.152,-0.912c-0.376,-0.34 -0.752,-0.784 -1.104,-1.128c-0.328,-0.32 -0.598,-0.731 -1.008,-0.936c-0.48,-0.24 -1.264,-0.285 -1.872,-0.504c-0.644,-0.232 -1.556,-0.66 -1.992,-0.888c-0.233,-0.122 -0.419,-0.316 -0.624,-0.48c-0.24,-0.192 -0.557,-0.433 -0.816,-0.672c-0.4,-0.368 -1.08,-1.128 -1.584,-1.536c-0.442,-0.357 -0.959,-0.61 -1.44,-0.912c-0.504,-0.316 -1.216,-0.732 -1.584,-0.984c-0.225,-0.154 -0.464,-0.38 -0.624,-0.528c-0.12,-0.111 -0.24,-0.232 -0.336,-0.36c-0.095,-0.126 -0.167,-0.268 -0.24,-0.408c-0.084,-0.16 -0.18,-0.384 -0.264,-0.552c-0.077,-0.154 -0.145,-0.313 -0.24,-0.456c-0.104,-0.156 -0.245,-0.329 -0.384,-0.48c-0.144,-0.156 -0.318,-0.306 -0.48,-0.456c-0.168,-0.156 -0.362,-0.31 -0.528,-0.48c-0.168,-0.172 -0.34,-0.376 -0.48,-0.552c-0.129,-0.162 -0.236,-0.34 -0.36,-0.504c-0.124,-0.163 -0.268,-0.332 -0.384,-0.48c-0.106,-0.135 -0.228,-0.259 -0.312,-0.408c-0.092,-0.164 -0.185,-0.375 -0.24,-0.576c-0.056,-0.204 -0.067,-0.432 -0.096,-0.648c-0.032,-0.24 -0.04,-0.576 -0.096,-0.792c-0.047,-0.18 -0.18,-0.328 -0.24,-0.504c-0.072,-0.212 -0.144,-0.584 -0.192,-0.768c-0.029,-0.113 -0.053,-0.228 -0.096,-0.336c-0.048,-0.12 -0.149,-0.248 -0.192,-0.384c-0.056,-0.176 -0.105,-0.446 -0.144,-0.672c-0.044,-0.256 -0.044,-0.584 -0.12,-0.864c-0.076,-0.28 -0.216,-0.62 -0.336,-0.816c-0.092,-0.15 -0.256,-0.24 -0.384,-0.36c-0.144,-0.136 -0.356,-0.344 -0.48,-0.456c-0.084,-0.076 -0.196,-0.16 -0.264,-0.216c-0.048,-0.04 -0.091,-0.086 -0.144,-0.12c-0.168,-0.108 -0.577,-0.351 -0.864,-0.528c-0.292,-0.18 -0.6,-0.404 -0.888,-0.552c-0.268,-0.138 -0.557,-0.231 -0.84,-0.336c-0.3,-0.112 -0.652,-0.224 -0.96,-0.336c-0.297,-0.108 -0.632,-0.244 -0.888,-0.336c-0.214,-0.077 -0.439,-0.127 -0.648,-0.216c-0.216,-0.092 -0.464,-0.212 -0.648,-0.336c-0.169,-0.114 -0.324,-0.252 -0.456,-0.408c-0.132,-0.156 -0.268,-0.364 -0.336,-0.528c-0.059,-0.142 -0.072,-0.302 -0.072,-0.456c0,-0.164 0.022,-0.358 0.072,-0.528c0.052,-0.176 0.164,-0.36 0.24,-0.528c0.072,-0.16 0.165,-0.312 0.216,-0.48c0.068,-0.224 0.098,-0.584 0.192,-0.864c0.112,-0.332 0.336,-0.844 0.48,-1.128c0.104,-0.206 0.23,-0.404 0.384,-0.576c0.168,-0.188 0.444,-0.392 0.624,-0.552c0.152,-0.136 0.327,-0.25 0.456,-0.408c0.172,-0.212 0.396,-0.58 0.576,-0.864c0.175,-0.276 0.388,-0.6 0.504,-0.84c0.091,-0.189 0.152,-0.394 0.192,-0.6c0.04,-0.208 0.12,-0.444 0.048,-0.648c-0.076,-0.216 -0.368,-0.428 -0.504,-0.648c-0.13,-0.21 -0.186,-0.46 -0.312,-0.672c-0.128,-0.216 -0.3,-0.452 -0.456,-0.624c-0.141,-0.156 -0.304,-0.294 -0.48,-0.408c-0.216,-0.14 -0.542,-0.293 -0.816,-0.432c-0.276,-0.14 -0.576,-0.3 -0.84,-0.408c-0.241,-0.099 -0.516,-0.164 -0.744,-0.24c-0.209,-0.07 -0.452,-0.16 -0.624,-0.216c-0.135,-0.044 -0.3,-0.072 -0.408,-0.12c-0.089,-0.04 -0.162,-0.109 -0.24,-0.168c-0.084,-0.064 -0.187,-0.132 -0.264,-0.216c-0.088,-0.096 -0.244,-0.244 -0.264,-0.36c-0.02,-0.116 0.069,-0.24 0.144,-0.336c0.1,-0.128 0.293,-0.301 0.456,-0.432c0.18,-0.144 0.4,-0.316 0.624,-0.432c0.224,-0.116 0.477,-0.185 0.72,-0.264c0.272,-0.088 0.612,-0.176 0.912,-0.264c0.296,-0.087 0.601,-0.149 0.888,-0.264c0.32,-0.128 0.784,-0.388 1.032,-0.504c0.149,-0.07 0.324,-0.093 0.456,-0.192c0.408,-0.304 1.404,-1.148 1.992,-1.632c0.513,-0.422 1.072,-0.82 1.536,-1.272c0.455,-0.443 0.976,-1.076 1.248,-1.44c0.167,-0.224 0.268,-0.49 0.384,-0.744c0.152,-0.332 0.424,-0.94 0.528,-1.248c0.065,-0.192 0.12,-0.428 0.096,-0.6c-0.023,-0.163 -0.134,-0.306 -0.24,-0.432c-0.216,-0.256 -0.808,-0.812 -1.056,-1.104c-0.168,-0.198 -0.272,-0.443 -0.432,-0.648c-0.184,-0.236 -0.44,-0.564 -0.672,-0.768c-0.213,-0.188 -0.484,-0.298 -0.72,-0.456c-0.276,-0.184 -0.644,-0.452 -0.936,-0.648c-0.269,-0.181 -0.515,-0.409 -0.816,-0.528c-0.356,-0.14 -0.873,-0.242 -1.32,-0.312c-0.46,-0.072 -1.096,-0.08 -1.44,-0.12c-0.21,-0.024 -0.444,-0.06 -0.624,-0.12c-0.163,-0.054 -0.344,-0.164 -0.456,-0.24c-0.084,-0.057 -0.165,-0.128 -0.216,-0.216c-0.06,-0.104 -0.148,-0.276 -0.144,-0.408c0.004,-0.132 0.116,-0.254 0.168,-0.384c0.08,-0.2 0.12,-0.597 0.312,-0.816c0.196,-0.224 0.553,-0.396 0.864,-0.528c0.34,-0.144 0.769,-0.312 1.176,-0.336c0.484,-0.028 1.156,0.077 1.728,0.168c0.656,0.104 1.612,0.368 2.208,0.456c0.452,0.067 1.06,0.064 1.368,0.072c0.16,0.004 0.33,0.032 0.48,-0.024c0.172,-0.064 0.373,-0.232 0.552,-0.36c0.224,-0.16 0.582,-0.344 0.792,-0.6c0.256,-0.312 0.484,-0.904 0.744,-1.272c0.239,-0.338 0.624,-0.704 0.816,-0.936c0.12,-0.145 0.256,-0.292 0.336,-0.456c0.08,-0.164 0.1,-0.352 0.144,-0.528c0.044,-0.175 0.091,-0.35 0.12,-0.528c0.032,-0.2 0.088,-0.464 0.072,-0.672c-0.015,-0.199 -0.118,-0.382 -0.168,-0.576c-0.06,-0.232 -0.1,-0.564 -0.192,-0.816c-0.09,-0.245 -0.22,-0.504 -0.36,-0.696c-0.13,-0.178 -0.348,-0.284 -0.48,-0.456c-0.132,-0.172 -0.276,-0.404 -0.312,-0.576c-0.032,-0.152 0.019,-0.321 0.096,-0.456c0.084,-0.148 0.263,-0.297 0.408,-0.432c0.18,-0.168 0.449,-0.382 0.672,-0.576c0.276,-0.24 0.608,-0.643 0.984,-0.864c0.408,-0.24 0.976,-0.384 1.464,-0.576" style="fill:none;stroke:#fff;stroke-width:1.7px;"/></svg>