<?xml version="1.0" encoding="UTF-8" standalone="no"?>
<!DOCTYPE svg PUBLIC "-//W3C//DTD SVG 1.1//EN" "http://www.w3.org/Graphics/SVG/1.1/DTD/svg11.dtd">
<svg width="100%" height="100%" viewBox="0 0 36 85" version="1.1" xmlns="http://www.w3.org/2000/svg" xmlns:xlink="http://www.w3.org/1999/xlink" xml:space="preserve" xmlns:serif="http://www.serif.com/" style="fill-rule:evenodd;clip-rule:evenodd;stroke-linecap:round;stroke-linejoin:round;">
    <g transform="matrix(2.4,0,0,2.4,-1159.65,-230.582)">
        <path d="M483.54,131.03C483.65,130.983 483.822,130.957 483.87,130.89C483.918,130.823 483.855,130.714 483.83,130.63C483.793,130.507 483.672,130.288 483.65,130.15C483.632,130.034 483.657,129.905 483.7,129.8C483.743,129.695 483.819,129.594 483.91,129.52C484.035,129.418 484.302,129.258 484.45,129.19C484.559,129.14 484.68,129.111 484.8,129.11C484.945,129.108 485.148,129.15 485.32,129.18C485.607,129.23 486.17,129.357 486.52,129.41C486.818,129.455 487.205,129.472 487.42,129.5C487.552,129.517 487.682,129.563 487.81,129.58C487.936,129.596 488.063,129.602 488.19,129.6C488.323,129.598 488.477,129.603 488.61,129.57C488.743,129.537 488.881,129.486 488.99,129.4C489.158,129.267 489.467,128.947 489.62,128.77C489.733,128.639 489.848,128.437 489.91,128.34C489.94,128.292 489.967,128.242 489.99,128.19C490.025,128.112 490.069,127.973 490.12,127.87C490.197,127.713 490.365,127.442 490.45,127.25C490.526,127.079 490.537,126.863 490.63,126.72C490.722,126.579 490.862,126.468 491.01,126.39C491.168,126.307 491.395,126.253 491.58,126.22C491.757,126.188 491.96,126.18 492.12,126.19C492.263,126.199 492.402,126.241 492.54,126.28C492.703,126.327 492.947,126.413 493.1,126.47C493.222,126.515 493.342,126.565 493.46,126.62C493.585,126.678 493.721,126.752 493.85,126.82C494.005,126.902 494.22,127.017 494.39,127.11C494.551,127.198 494.742,127.32 494.87,127.38C494.962,127.423 495.068,127.447 495.16,127.47C495.246,127.492 495.332,127.517 495.42,127.52C495.512,127.523 495.614,127.506 495.71,127.49C495.837,127.468 496.037,127.43 496.18,127.39C496.313,127.353 496.46,127.305 496.57,127.25C496.668,127.201 496.763,127.138 496.84,127.06C496.942,126.957 497.075,126.777 497.18,126.63C497.284,126.485 497.39,126.297 497.47,126.18C497.529,126.094 497.633,126.031 497.66,125.93C497.692,125.81 497.652,125.583 497.66,125.46C497.666,125.369 497.695,125.27 497.71,125.19C497.723,125.12 497.746,125.051 497.75,124.98C497.757,124.87 497.775,124.63 497.75,124.53C497.733,124.461 497.654,124.426 497.6,124.38C497.495,124.292 497.271,124.137 497.12,124C496.963,123.858 496.807,123.673 496.66,123.53C496.523,123.396 496.411,123.225 496.24,123.14C496.04,123.04 495.713,123.021 495.46,122.93C495.192,122.833 494.812,122.655 494.63,122.56C494.533,122.509 494.455,122.428 494.37,122.36C494.27,122.28 494.138,122.179 494.03,122.08C493.863,121.927 493.58,121.61 493.37,121.44C493.186,121.291 492.971,121.186 492.77,121.06C492.56,120.928 492.263,120.755 492.11,120.65C492.016,120.586 491.917,120.492 491.85,120.43C491.8,120.384 491.75,120.333 491.71,120.28C491.671,120.227 491.641,120.168 491.61,120.11C491.575,120.043 491.535,119.95 491.5,119.88C491.468,119.816 491.44,119.75 491.4,119.69C491.357,119.625 491.298,119.553 491.24,119.49C491.18,119.425 491.107,119.363 491.04,119.3C490.97,119.235 490.889,119.171 490.82,119.1C490.75,119.028 490.678,118.943 490.62,118.87C490.566,118.803 490.522,118.728 490.47,118.66C490.419,118.592 490.358,118.522 490.31,118.46C490.266,118.404 490.215,118.352 490.18,118.29C490.142,118.222 490.103,118.134 490.08,118.05C490.057,117.965 490.052,117.87 490.04,117.78C490.027,117.68 490.023,117.54 490,117.45C489.981,117.375 489.925,117.313 489.9,117.24C489.87,117.152 489.84,116.997 489.82,116.92C489.808,116.873 489.798,116.825 489.78,116.78C489.76,116.73 489.718,116.677 489.7,116.62C489.677,116.547 489.656,116.434 489.64,116.34C489.622,116.233 489.622,116.097 489.59,115.98C489.558,115.863 489.5,115.722 489.45,115.64C489.412,115.578 489.343,115.54 489.29,115.49C489.23,115.433 489.142,115.347 489.09,115.3C489.055,115.268 489.008,115.233 488.98,115.21C488.96,115.193 488.942,115.174 488.92,115.16C488.85,115.115 488.68,115.014 488.56,114.94C488.438,114.865 488.31,114.772 488.19,114.71C488.078,114.653 487.958,114.614 487.84,114.57C487.715,114.523 487.568,114.477 487.44,114.43C487.316,114.385 487.177,114.328 487.07,114.29C486.981,114.258 486.887,114.237 486.8,114.2C486.71,114.162 486.607,114.112 486.53,114.06C486.46,114.013 486.395,113.955 486.34,113.89C486.285,113.825 486.228,113.738 486.2,113.67C486.175,113.611 486.17,113.544 486.17,113.48C486.17,113.412 486.179,113.331 486.2,113.26C486.222,113.187 486.268,113.11 486.3,113.04C486.33,112.973 486.369,112.91 486.39,112.84C486.418,112.747 486.431,112.596 486.47,112.48C486.517,112.342 486.61,112.128 486.67,112.01C486.713,111.924 486.766,111.842 486.83,111.77C486.9,111.692 487.015,111.607 487.09,111.54C487.154,111.484 487.226,111.436 487.28,111.37C487.352,111.282 487.445,111.128 487.52,111.01C487.593,110.895 487.682,110.76 487.73,110.66C487.768,110.581 487.793,110.496 487.81,110.41C487.827,110.323 487.86,110.225 487.83,110.14C487.798,110.05 487.677,109.962 487.62,109.87C487.566,109.782 487.542,109.679 487.49,109.59C487.437,109.5 487.365,109.402 487.3,109.33C487.241,109.265 487.173,109.208 487.1,109.16C487.01,109.102 486.874,109.038 486.76,108.98C486.645,108.922 486.52,108.855 486.41,108.81C486.31,108.769 486.195,108.742 486.1,108.71C486.013,108.681 485.912,108.643 485.84,108.62C485.784,108.602 485.715,108.59 485.67,108.57C485.633,108.553 485.602,108.525 485.57,108.5C485.535,108.473 485.492,108.445 485.46,108.41C485.423,108.37 485.358,108.308 485.35,108.26C485.342,108.212 485.379,108.16 485.41,108.12C485.452,108.067 485.532,107.994 485.6,107.94C485.675,107.88 485.767,107.808 485.86,107.76C485.953,107.712 486.059,107.683 486.16,107.65C486.273,107.613 486.415,107.577 486.54,107.54C486.663,107.504 486.791,107.478 486.91,107.43C487.043,107.377 487.237,107.268 487.34,107.22C487.402,107.191 487.475,107.181 487.53,107.14C487.7,107.013 488.115,106.662 488.36,106.46C488.574,106.284 488.807,106.118 489,105.93C489.19,105.745 489.407,105.482 489.52,105.33C489.59,105.237 489.632,105.126 489.68,105.02C489.743,104.882 489.857,104.628 489.9,104.5C489.927,104.42 489.95,104.322 489.94,104.25C489.931,104.182 489.884,104.122 489.84,104.07C489.75,103.963 489.503,103.732 489.4,103.61C489.33,103.528 489.287,103.425 489.22,103.34C489.143,103.242 489.037,103.105 488.94,103.02C488.851,102.942 488.738,102.896 488.64,102.83C488.525,102.753 488.372,102.642 488.25,102.56C488.138,102.485 488.036,102.389 487.91,102.34C487.762,102.282 487.546,102.239 487.36,102.21C487.168,102.18 486.903,102.177 486.76,102.16C486.672,102.15 486.575,102.135 486.5,102.11C486.432,102.087 486.357,102.042 486.31,102.01C486.275,101.986 486.241,101.957 486.22,101.92C486.195,101.877 486.158,101.805 486.16,101.75C486.162,101.695 486.208,101.644 486.23,101.59C486.263,101.507 486.28,101.341 486.36,101.25C486.442,101.157 486.591,101.085 486.72,101.03C486.862,100.97 487.04,100.9 487.21,100.89C487.412,100.878 487.692,100.922 487.93,100.96C488.203,101.003 488.602,101.113 488.85,101.15C489.038,101.178 489.292,101.177 489.42,101.18C489.487,101.182 489.557,101.193 489.62,101.17C489.692,101.143 489.776,101.073 489.85,101.02C489.943,100.953 490.092,100.877 490.18,100.77C490.287,100.64 490.382,100.393 490.49,100.24C490.59,100.099 490.75,99.947 490.83,99.85C490.88,99.789 490.937,99.728 490.97,99.66C491.003,99.592 491.012,99.513 491.03,99.44C491.048,99.367 491.068,99.294 491.08,99.22C491.093,99.137 491.117,99.027 491.11,98.94C491.104,98.857 491.061,98.781 491.04,98.7C491.015,98.603 490.998,98.465 490.96,98.36C490.923,98.258 490.868,98.15 490.81,98.07C490.756,97.996 490.665,97.952 490.61,97.88C490.555,97.808 490.495,97.712 490.48,97.64C490.467,97.577 490.488,97.506 490.52,97.45C490.555,97.388 490.63,97.326 490.69,97.27C490.765,97.2 490.877,97.111 490.97,97.03C491.085,96.93 491.223,96.762 491.38,96.67C491.55,96.57 491.787,96.51 491.99,96.43" style="fill:none;stroke:black;stroke-width:0.71px;"/>
    </g>
</svg>
